<svg width="258" height="261" viewBox="0 0 258 261" fill="none" xmlns="http://www.w3.org/2000/svg">
<rect width="258" height="162" fill="url(#paint0_linear)"/>
<path d="M177 160L201.791 0H258V160H177Z" fill="#04C977"/>
<path d="M0 128L258 159.705V261H0V128Z" fill="#16D88D"/>
<path d="M16.5909 34.4545V81H24.6818V48.9545H25.1136L37.9773 80.8636H44.0227L56.8864 49.0227H57.3182V81H65.4091V34.4545H55.0909L41.2727 68.1818H40.7273L26.9091 34.4545H16.5909ZM74.5909 81H93.4318C104.091 81 109.318 75.5682 109.318 68.3182C109.318 61.2727 104.318 57.1364 99.3636 56.8864V56.4318C103.909 55.3636 107.5 52.1818 107.5 46.5227C107.5 39.5909 102.5 34.4545 92.4091 34.4545H74.5909V81ZM83.0227 73.9545V60.3182H92.3182C97.5227 60.3182 100.75 63.5 100.75 67.6591C100.75 71.3636 98.2045 73.9545 92.0909 73.9545H83.0227ZM83.0227 54.25V41.4091H91.5455C96.5 41.4091 99.0682 44.0227 99.0682 47.6136C99.0682 51.7045 95.75 54.25 91.3636 54.25H83.0227ZM158.244 57.7273C158.244 42.6818 149.062 33.8182 136.858 33.8182C124.631 33.8182 115.472 42.6818 115.472 57.7273C115.472 72.75 124.631 81.6364 136.858 81.6364C149.062 81.6364 158.244 72.7727 158.244 57.7273ZM149.767 57.7273C149.767 68.3182 144.449 74.0682 136.858 74.0682C129.29 74.0682 123.949 68.3182 123.949 57.7273C123.949 47.1364 129.29 41.3864 136.858 41.3864C144.449 41.3864 149.767 47.1364 149.767 57.7273Z" fill="white"/>
<path d="M114.92 227H124.761V207.773H144.739V227H154.557V180.455H144.739V199.659H124.761V180.455H114.92V227ZM162.67 227H182.557C193.011 227 198.58 221.545 198.58 214.136C198.58 207.25 193.648 203.091 188.352 202.841V202.386C193.193 201.295 196.761 197.864 196.761 192.386C196.761 185.409 191.58 180.455 181.307 180.455H162.67V227ZM172.511 218.955V206.591H180.761C185.489 206.591 188.42 209.318 188.42 213.159C188.42 216.659 186.034 218.955 180.534 218.955H172.511ZM172.511 199.932V188.409H179.989C184.352 188.409 186.83 190.659 186.83 194.023C186.83 197.705 183.83 199.932 179.807 199.932H172.511ZM247.756 203.727C247.756 188.5 238.301 179.818 225.96 179.818C213.551 179.818 204.165 188.5 204.165 203.727C204.165 218.886 213.551 227.636 225.96 227.636C238.301 227.636 247.756 218.955 247.756 203.727ZM237.778 203.727C237.778 213.591 233.097 218.932 225.96 218.932C218.801 218.932 214.142 213.591 214.142 203.727C214.142 193.864 218.801 188.523 225.96 188.523C233.097 188.523 237.778 193.864 237.778 203.727Z" fill="white"/>
<path d="M99 261L68 136.341L0 128V261H99Z" fill="url(#paint1_linear)"/>
<defs>
<linearGradient id="paint0_linear" x1="2.19603e-08" y1="56" x2="213" y2="55" gradientUnits="userSpaceOnUse">
<stop stop-color="#320070"/>
<stop offset="0.0001" stop-color="#651FBC"/>
<stop offset="1" stop-color="#8742E2"/>
</linearGradient>
<linearGradient id="paint1_linear" x1="49.5" y1="128.463" x2="49.5" y2="261" gradientUnits="userSpaceOnUse">
<stop stop-color="#8742E2"/>
<stop offset="1" stop-color="#5F29A6"/>
</linearGradient>
</defs>
</svg>
